<?xml version="1.0" encoding="utf-8"?>
<!-- Generator: Adobe Illustrator 18.0.0, SVG Export Plug-In . SVG Version: 6.00 Build 0)  -->
<!DOCTYPE svg PUBLIC "-//W3C//DTD SVG 1.1//EN" "http://www.w3.org/Graphics/SVG/1.1/DTD/svg11.dtd">
<svg version="1.1" id="Layer_1" xmlns="http://www.w3.org/2000/svg" xmlns:xlink="http://www.w3.org/1999/xlink" x="0px" y="0px"
	 viewBox="0 0 128 128" enable-background="new 0 0 128 128" xml:space="preserve">
<path fill="#EBCEAF" d="M64,4C30.9,4,4,30.8,4,64c0,33.1,26.9,60,60,60s60-26.9,60-60C124,30.8,97.1,4,64,4z M79.9,63.7H69.5
	c0,16.6,0,37.1,0,37.1H54.1c0,0,0-20.2,0-37.1h-7.3V50.6h7.3v-8.5c0-6.1,2.9-15.5,15.5-15.5l11.4,0v12.7c0,0-6.9,0-8.3,0
	c-1.3,0-3.3,0.7-3.3,3.6v7.7h11.7L79.9,63.7z"/>
</svg>
