<?xml version="1.0" encoding="utf-8"?>
<!-- Generator: Adobe Illustrator 18.0.0, SVG Export Plug-In . SVG Version: 6.00 Build 0)  -->
<!DOCTYPE svg PUBLIC "-//W3C//DTD SVG 1.1//EN" "http://www.w3.org/Graphics/SVG/1.1/DTD/svg11.dtd">
<svg version="1.1" id="Layer_1" xmlns="http://www.w3.org/2000/svg" xmlns:xlink="http://www.w3.org/1999/xlink" x="0px" y="0px"
	 viewBox="0 0 128 128" enable-background="new 0 0 128 128" xml:space="preserve">
<g>
	<polygon fill="#EBCEAF" points="88.8,50.9 88.8,41.2 88.8,39.8 87.3,39.8 77.7,39.9 77.7,50.9 	"/>
	<path fill="#EBCEAF" d="M63.7,76.4c6.3,0,11.5-5.1,11.5-11.5c0-2.5-0.8-4.8-2.2-6.7c-2.1-2.9-5.5-4.8-9.3-4.8
		c-3.8,0-7.2,1.9-9.3,4.8c-1.4,1.9-2.2,4.2-2.2,6.7C52.2,71.2,57.4,76.4,63.7,76.4z"/>
	<path fill="#EBCEAF" d="M64,4C30.9,4,4,30.9,4,64c0,33.1,26.9,60,60,60c33.1,0,60-26.9,60-60C124,30.9,97.1,4,64,4z M96.3,58.2
		v26.7c0,7-5.7,12.6-12.6,12.6h-40c-7,0-12.6-5.7-12.6-12.6V58.2V44.9c0-7,5.7-12.6,12.6-12.6h40c7,0,12.6,5.7,12.6,12.6V58.2z"/>
	<path fill="#EBCEAF" d="M81.5,64.9c0,9.8-8,17.8-17.8,17.8c-9.8,0-17.8-8-17.8-17.8c0-2.4,0.5-4.6,1.3-6.7h-9.7v26.7
		c0,3.4,2.8,6.3,6.2,6.3h40c3.4,0,6.3-2.8,6.3-6.3V58.2h-9.7C81.1,60.3,81.5,62.5,81.5,64.9z"/>
</g>
</svg>
