<?xml version="1.0" encoding="utf-8"?>
<!-- Generator: Adobe Illustrator 18.1.1, SVG Export Plug-In . SVG Version: 6.00 Build 0)  -->
<!DOCTYPE svg PUBLIC "-//W3C//DTD SVG 1.1//EN" "http://www.w3.org/Graphics/SVG/1.1/DTD/svg11.dtd">
<svg version="1.1" id="Layer_1" xmlns="http://www.w3.org/2000/svg" xmlns:xlink="http://www.w3.org/1999/xlink" x="0px" y="0px"
	 viewBox="0 0 128.5 11.9" enable-background="new 0 0 128.5 11.9" xml:space="preserve">
<g>
	<g>
		<g>
			<path d="M5.7,1C7,1,8,1.5,9,2.3c0.1,0.1,0.1,0.3,0,0.4L8.6,3C8.5,3.2,8.4,3.1,8.3,3C7.5,2.4,6.6,2,5.6,2C3.5,2,1.8,3.8,1.8,5.9
				c0,2.1,1.7,3.9,3.8,3.9c1.2,0,1.9-0.5,2.6-1c0.1-0.1,0.2-0.1,0.3,0L9,9.2c0.1,0.1,0.1,0.3,0,0.4c-0.9,0.9-2.1,1.3-3.3,1.3
				c-2.7,0-4.9-2.2-4.9-4.9S2.9,1,5.7,1z"/>
			<path d="M11.2,1.4c0-0.1,0.1-0.3,0.3-0.3H12c0.1,0,0.3,0.1,0.3,0.3v4h5.6v-4c0-0.1,0.1-0.3,0.3-0.3h0.5c0.1,0,0.3,0.1,0.3,0.3
				v9.1c0,0.1-0.1,0.3-0.3,0.3h-0.5c-0.2,0-0.3-0.1-0.3-0.3V6.3h-5.6v4.1c0,0.1-0.1,0.3-0.3,0.3h-0.5c-0.1,0-0.3-0.1-0.3-0.3V1.4z"
				/>
			<path d="M20.6,10.4l4.2-9.2C24.8,1.1,24.9,1,25,1h0.1c0.1,0,0.2,0.1,0.2,0.2l4.1,9.2c0.1,0.2,0,0.4-0.2,0.4h-0.5
				c-0.1,0-0.2-0.1-0.2-0.2l-1-2.3h-4.9l-1,2.3c0,0.1-0.1,0.2-0.2,0.2h-0.5C20.6,10.7,20.5,10.5,20.6,10.4z M27.1,7.5
				c-0.7-1.5-1.3-3-2-4.5H25l-2,4.5H27.1z"/>
			<path d="M31.3,1.4c0-0.1,0.1-0.3,0.3-0.3h3.5c1.6,0,3,1.3,3,2.9c0,1.3-0.8,2.3-2,2.8l1.9,3.5c0.1,0.2,0,0.4-0.2,0.4H37
				c-0.1,0-0.2-0.1-0.2-0.1L34.9,7h-2.6v3.5c0,0.1-0.1,0.3-0.3,0.3h-0.5c-0.2,0-0.3-0.1-0.3-0.3V1.4z M35,6.1c1.1,0,2-0.9,2-2
				c0-1-0.9-1.9-2-1.9h-2.7v3.9H35z"/>
			<path d="M39.2,1.5c-0.1-0.2,0-0.4,0.2-0.4H40c0.1,0,0.2,0.1,0.2,0.1l3.4,7.7h0.1l3.4-7.7c0-0.1,0.1-0.1,0.2-0.1h0.5
				c0.2,0,0.3,0.2,0.2,0.4l-4.2,9.2c0,0.1-0.1,0.2-0.2,0.2h-0.1c-0.1,0-0.2-0.1-0.2-0.2L39.2,1.5z"/>
			<path d="M49.8,1.4c0-0.1,0.1-0.3,0.3-0.3h0.5c0.1,0,0.3,0.1,0.3,0.3v9.1c0,0.1-0.1,0.3-0.3,0.3h-0.5c-0.1,0-0.3-0.1-0.3-0.3V1.4z
				"/>
			<path d="M53.9,1.4c0-0.1,0.1-0.3,0.2-0.3h3.1c2.6,0,4.8,2.1,4.8,4.8c0,2.7-2.2,4.8-4.8,4.8h-3.1c-0.1,0-0.2-0.1-0.2-0.3V1.4z
				 M57,9.8c2.2,0,3.9-1.6,3.9-3.9c0-2.2-1.6-3.8-3.9-3.8h-2.1v7.7H57z"/>
			<path d="M62.7,10.4l4.2-9.2C66.9,1.1,67,1,67.1,1h0.1c0.1,0,0.2,0.1,0.2,0.2l4.1,9.2c0.1,0.2,0,0.4-0.2,0.4h-0.5
				c-0.1,0-0.2-0.1-0.2-0.2l-1-2.3h-4.9l-1,2.3c0,0.1-0.1,0.2-0.2,0.2h-0.5C62.7,10.7,62.6,10.5,62.7,10.4z M69.2,7.5
				c-0.7-1.5-1.3-3-2-4.5h-0.1l-2,4.5H69.2z"/>
		</g>
	</g>
	<g>
		<g>
			<path d="M81.3,1.4c0-0.1,0.1-0.3,0.3-0.3h3c1.7,0,2.8,1.1,2.8,2.5c0,1.1-0.7,1.8-1.3,2.2c0.7,0.3,1.6,1,1.6,2.2
				c0,1.5-1.2,2.6-3,2.6h-3.1c-0.2,0-0.3-0.1-0.3-0.3V1.4z M84.8,9.8c1,0,1.7-0.8,1.7-1.7c0-1-0.9-1.7-2-1.7h-2.3v3.4H84.8z
				 M84.6,5.4c1.1,0,1.6-0.8,1.6-1.7c0-1-0.6-1.6-1.6-1.6h-2.2v3.4H84.6z"/>
			<path d="M90.1,1.4c0-0.1,0.1-0.3,0.3-0.3h0.5c0.1,0,0.3,0.1,0.3,0.3v9.1c0,0.1-0.1,0.3-0.3,0.3h-0.5c-0.1,0-0.3-0.1-0.3-0.3V1.4z
				"/>
			<path d="M92.8,9.5l0.3-0.3c0.2-0.2,0.3-0.1,0.5,0c0.2,0.3,0.7,0.7,1.3,0.7c0.8,0,1.7-0.6,1.7-2.1V1.4c0-0.1,0.1-0.3,0.3-0.3h0.5
				c0.2,0,0.3,0.1,0.3,0.3v6.5c0,1.9-1.1,3-2.7,3c-1.2,0-1.8-0.7-2.1-1C92.7,9.7,92.7,9.6,92.8,9.5z"/>
			<path d="M104.6,1c2.7,0,4.9,2.2,4.9,4.9c0,2.7-2.2,4.9-4.9,4.9c-2.7,0-4.9-2.2-4.9-4.9C99.7,3.2,101.8,1,104.6,1z M104.6,9.9
				c2.2,0,4-1.8,4-4c0-2.2-1.8-4-4-4c-2.2,0-4,1.8-4,4C100.6,8.1,102.4,9.9,104.6,9.9z"/>
			<path d="M111.7,1.4c0-0.1,0.1-0.3,0.3-0.3h0.5c0.2,0,0.3,0.1,0.3,0.3v5.7c0,1.6,1,2.8,2.6,2.8c1.6,0,2.6-1.2,2.6-2.8V1.4
				c0-0.1,0.1-0.3,0.3-0.3h0.5c0.1,0,0.3,0.1,0.3,0.3v5.8c0,2.1-1.5,3.7-3.6,3.7c-2.1,0-3.6-1.6-3.6-3.7V1.4z"/>
			<path d="M123.6,5.8L121,1.5c-0.1-0.2,0-0.4,0.2-0.4h0.7c0.1,0,0.2,0.1,0.2,0.1l2.1,3.6h0l2.1-3.6c0-0.1,0.1-0.1,0.2-0.1h0.7
				c0.2,0,0.3,0.2,0.2,0.4L125,5.8l2.8,4.5c0.1,0.2,0,0.4-0.2,0.4h-0.6c-0.1,0-0.2-0.1-0.2-0.1l-2.3-3.9h0l-2.3,3.9
				c0,0.1-0.1,0.1-0.2,0.1h-0.6c-0.2,0-0.4-0.2-0.2-0.4L123.6,5.8z"/>
		</g>
	</g>
</g>
</svg>
