<?xml version="1.0" encoding="utf-8"?>
<!-- Generator: Adobe Illustrator 18.0.0, SVG Export Plug-In . SVG Version: 6.00 Build 0)  -->
<!DOCTYPE svg PUBLIC "-//W3C//DTD SVG 1.1//EN" "http://www.w3.org/Graphics/SVG/1.1/DTD/svg11.dtd">
<svg version="1.1" id="Layer_1" xmlns="http://www.w3.org/2000/svg" xmlns:xlink="http://www.w3.org/1999/xlink" x="0px" y="0px"
	 viewBox="0 0 120 120" enable-background="new 0 0 120 120" xml:space="preserve">
<g>
	<g>
		<circle cx="100.3" cy="62" r="2.6"/>
	</g>
	<g>
		<circle cx="25.6" cy="75.7" r="2.6"/>
	</g>
	<g>
		<path d="M13,62.5c-0.1-1.9,0.4-3.4,1.5-4.7c0.1-0.2,0.4-0.2,0.5-0.1l0.5,0.5c0.2,0.1,0.2,0.3,0,0.5c-0.8,1-1.3,2.4-1.2,3.7
			c0.2,3,2.9,5.2,5.8,5c2.9-0.2,5.3-2.7,5.1-5.7c-0.1-1.7-0.8-2.6-1.7-3.5c-0.2-0.2-0.2-0.3-0.1-0.5l0.5-0.6c0.1-0.2,0.4-0.1,0.5,0
			c1.3,1.2,2,2.8,2.2,4.5c0.3,3.8-2.6,7.1-6.4,7.3C16.6,69.2,13.3,66.3,13,62.5z"/>
		<path d="M15.1,47.3c-0.2-0.1-0.3-0.3-0.2-0.5l0.3-0.7c0.1-0.2,0.3-0.3,0.5-0.2l5.2,2.1l3-7.2l-5.2-2.1c-0.2-0.1-0.3-0.3-0.2-0.5
			l0.3-0.7c0.1-0.2,0.3-0.3,0.5-0.2l11.7,4.9c0.2,0.1,0.3,0.3,0.2,0.5l-0.3,0.7c-0.1,0.2-0.3,0.3-0.5,0.2l-5.3-2.2l-3,7.2l5.3,2.2
			c0.2,0.1,0.3,0.3,0.2,0.5l-0.3,0.7c-0.1,0.2-0.3,0.3-0.5,0.2L15.1,47.3z"/>
		<path d="M33.1,38.5l-4-13.5c0-0.1,0-0.3,0.1-0.4l0.1-0.1c0.1-0.1,0.3-0.1,0.4-0.1l12.8,5.9c0.3,0.1,0.3,0.4,0.1,0.6L42,31.5
			c-0.1,0.1-0.3,0.1-0.4,0.1l-3.1-1.5l-5.1,4.4l1,3.3c0,0.1,0,0.3-0.1,0.4l-0.6,0.5C33.5,38.9,33.2,38.8,33.1,38.5z M37.3,29.5
			c-2.1-1-4.1-1.9-6.2-2.9L31,26.7l2,6.6L37.3,29.5z"/>
		<path d="M43.2,16.5c-0.1-0.2,0-0.4,0.2-0.4l4.8-1.4c2.2-0.6,4.5,0.6,5.1,2.8c0.5,1.7-0.2,3.4-1.6,4.5l3.8,3.9
			c0.2,0.2,0.2,0.5-0.2,0.6l-0.9,0.3c-0.2,0-0.3,0-0.3-0.1l-3.8-4.2l-3.5,1l1.3,4.7c0.1,0.2-0.1,0.4-0.2,0.4L47.1,29
			c-0.2,0.1-0.4-0.1-0.4-0.2L43.2,16.5z M50,21.4c1.4-0.4,2.3-1.9,1.9-3.4c-0.4-1.4-2-2.2-3.4-1.8l-3.6,1l1.5,5.3L50,21.4z"/>
		<path d="M61.2,13.3c-0.1-0.3,0.1-0.5,0.4-0.4l0.8,0.1c0.2,0,0.3,0.2,0.3,0.3l3.1,11.3l0.1,0l6.3-9.9c0.1-0.1,0.2-0.2,0.4-0.2
			l0.8,0.1c0.3,0,0.4,0.3,0.2,0.5L65.8,27c-0.1,0.1-0.2,0.2-0.4,0.2l-0.2,0c-0.1,0-0.2-0.1-0.3-0.3L61.2,13.3z"/>
		<path d="M81.6,18.7c0.1-0.2,0.3-0.2,0.5-0.1l0.7,0.4c0.2,0.1,0.2,0.3,0.1,0.5l-6,11.2c-0.1,0.2-0.3,0.2-0.5,0.1l-0.7-0.4
			c-0.2-0.1-0.2-0.3-0.1-0.5L81.6,18.7z"/>
		<path d="M91.8,25.4c0.1-0.1,0.4-0.1,0.5,0l2.8,3.2c2.4,2.8,2.2,7-0.5,9.4c-2.8,2.5-7,2.2-9.5-0.6l-2.8-3.2c-0.1-0.1-0.1-0.4,0-0.5
			L91.8,25.4z M85.9,36.4c2.1,2.3,5.3,2.6,7.6,0.5c2.3-2.1,2.5-5.3,0.4-7.6L92,27.1l-8,7.1L85.9,36.4z"/>
		<path d="M91.4,44.8l14,2c0.1,0,0.2,0.1,0.3,0.3l0.1,0.2c0,0.2,0,0.3-0.1,0.4l-10.8,9.1c-0.2,0.2-0.5,0.1-0.6-0.2L94,55.8
			c0-0.2,0-0.3,0.1-0.4l2.6-2.2l-1.9-6.5l-3.4-0.5c-0.1,0-0.2-0.1-0.3-0.3L91,45.2C90.9,44.9,91.1,44.7,91.4,44.8z M97.8,52.3
			c1.7-1.5,3.5-2.9,5.2-4.4l0-0.1l-6.8-0.9L97.8,52.3z"/>
	</g>
	<g>
		<path d="M35.1,83.1c0.1-0.1,0.4-0.2,0.5,0l3.2,2.7c1.8,1.5,2,3.7,0.6,5.2c-1,1.1-2.4,1.3-3.4,1.1c0.5,1,0.8,2.5-0.3,3.9
			c-1.4,1.6-3.7,1.7-5.6,0l-3.3-2.9c-0.2-0.1-0.2-0.4,0-0.5L35.1,83.1z M31,95.1c1.1,0.9,2.5,0.8,3.4-0.3c0.9-1,0.6-2.6-0.5-3.6
			l-2.4-2.1l-3.1,3.6L31,95.1z M34.8,90.3c1.1,1,2.4,0.7,3.3-0.3c0.9-1,0.9-2.3-0.2-3.2l-2.4-2l-3.1,3.5L34.8,90.3z"/>
		<path d="M46.4,91c0.1-0.2,0.3-0.3,0.5-0.2l0.7,0.3c0.2,0.1,0.3,0.3,0.2,0.5l-4.9,11.6c-0.1,0.2-0.3,0.3-0.5,0.2l-0.7-0.3
			c-0.2-0.1-0.3-0.3-0.2-0.5L46.4,91z"/>
		<path d="M50.1,104.4l0.5-0.4c0.3-0.2,0.5-0.1,0.6,0.1c0.3,0.4,0.9,1.1,1.7,1.2c1.1,0.2,2.4-0.5,2.7-2.5l1.2-9
			c0-0.2,0.2-0.3,0.4-0.3l0.7,0.1c0.2,0,0.3,0.2,0.3,0.4l-1.2,8.9c-0.3,2.6-2.1,3.9-4.4,3.6c-1.6-0.2-2.4-1.3-2.7-1.8
			C50,104.7,50,104.5,50.1,104.4z"/>
		<path d="M69,92.3c3.7-1,7.4,1.2,8.5,4.8c1,3.7-1.1,7.4-4.8,8.4c-3.7,1-7.4-1.1-8.4-4.8C63.2,97,65.4,93.3,69,92.3z M72.3,104.2
			c2.9-0.8,4.7-3.9,3.9-6.8c-0.8-2.9-3.9-4.7-6.8-3.9c-2.9,0.8-4.7,3.9-3.9,6.8C66.3,103.3,69.4,105,72.3,104.2z"/>
		<path d="M79.3,88.6c-0.1-0.1-0.1-0.4,0-0.5l0.5-0.5c0.2-0.1,0.4-0.1,0.5,0l5.4,5.9c1.5,1.6,3.6,1.9,5.3,0.4
			c1.7-1.5,1.6-3.7,0.1-5.3l-5.4-5.9c-0.1-0.1-0.1-0.4,0-0.5l0.5-0.5c0.1-0.1,0.4-0.1,0.5,0l5.5,6c2,2.1,1.9,5.2-0.3,7.2
			c-2.2,2-5.2,1.8-7.2-0.4L79.3,88.6z"/>
		<path d="M96.2,77.6l-7,0.9c-0.3,0-0.5-0.2-0.4-0.5l0.4-0.9c0.1-0.1,0.2-0.2,0.3-0.2l5.8-0.6l0,0L92,71.4C92,71.3,92,71.2,92,71
			l0.4-0.9c0.1-0.3,0.5-0.3,0.6-0.1l3.9,5.9l7.4-0.9c0.3,0,0.5,0.2,0.4,0.5l-0.4,0.8c-0.1,0.1-0.2,0.2-0.3,0.2l-6.3,0.7l0,0l3.6,5.2
			c0.1,0.1,0.1,0.2,0,0.4l-0.4,0.8c-0.1,0.3-0.5,0.3-0.6,0.1L96.2,77.6z"/>
	</g>
	<g>
		<path d="M60.2,112.4C31.5,112.4,8.1,89,8.1,60.3c0-28.8,23.4-52.2,52.2-52.2c28.8,0,52.2,23.4,52.2,52.2
			C112.4,89,89,112.4,60.2,112.4z M60.2,9.3c-28.1,0-51,22.9-51,51s22.9,51,51,51c28.1,0,51-22.9,51-51S88.4,9.3,60.2,9.3z"/>
	</g>
	<g>
		<path d="M60.2,90.6c-16.7,0-30.3-13.6-30.3-30.3s13.6-30.3,30.3-30.3s30.3,13.6,30.3,30.3S77,90.6,60.2,90.6z M60.2,31.1
			c-16.1,0-29.2,13.1-29.2,29.2s13.1,29.2,29.2,29.2s29.2-13.1,29.2-29.2S76.3,31.1,60.2,31.1z"/>
	</g>
</g>
</svg>
